<svg id="Layer_1" data-name="Layer 1" xmlns="http://www.w3.org/2000/svg" viewBox="0 0 254.84 375.34"><defs><style>.cls-1{fill:#eae8ff;}</style></defs><g id="cyclery_logo" data-name="cyclery logo"><path class="cls-1" d="M244,226.5S127.3,150,127,150.07c-.08,0-116.09,76.43-116.45,76.4-.25-.38-.35-29.68-.3-29.84s116.93-77.12,117-77.17S244,196.07,244.06,196.32,244.26,226.47,244,226.5Z"/><path class="cls-1" d="M63.55,103.47h0c0,.2.49.1.71.1h2.23a.22.22,0,0,0,.06-.16V86.84a5.13,5.13,0,0,1,0-1.3,2.61,2.61,0,0,0,.63,0h1.27v0h0c0-.33,0-.74,0-1.09V82.59h1.15v0h0c.06-1.07,0-2.26,0-3.36V46.85c.07-.33.55-19,.55-19.36v-.4c.1-.44,0-4.11,0-4.11h.28v3.75l.07,0,.49,0H76c0-.35.52-5.81.65-6.37h0v.21c.07.12.57,6,.66,6.16s3.67,0,3.67,0a0,0,0,0,1,0,0c.07-.12,0-3.16,0-3.16a.8.8,0,0,1,.29,0,31.18,31.18,0,0,0,.07,3.27v.34c0,.33.94,19.75.94,19.8s0,25.26,0,25.26a6.21,6.21,0,0,0,1.22,0V88h1.21V26.13H86c0,1.52,0,3.4,0,3.4s0,0,0,0h0c.07.07,4.1,0,4.1,0s0,0,0,0,0-.41,0-.56c0,0-.15-6.53-.05-7h2.46c.06.18,0,2,0,2a2.15,2.15,0,0,0,.81,0h0v0c0-.08,0-22.2,0-22.2s0,0,.11,0v0c0,.09,0,20.5,0,22.22H96a2.33,2.33,0,0,0,0,.38c.29.16,1.41,1,1.56,1.17V49.69a2,2,0,0,0,.66,0h7.29v0h0v.15c.05.08-.07,1.75.05,2.08.2-.07,3.22,0,3.22,0s0-.23,0-.33V46.31a.18.18,0,0,1,.11,0c0,.15,0,5.57,0,5.57v0c.22,0,2.67,0,2.67,0v0a2.65,2.65,0,0,0,0-.63V49.63a3.07,3.07,0,0,1,.81,0h1.73a2.49,2.49,0,0,1,0,.73v1.55h0a2.38,2.38,0,0,0,.38,0c.09.2,0,17.52,0,17.52h.05a1.7,1.7,0,0,0,.71,0v0c.06-.12,0-17.39,0-17.42a2.79,2.79,0,0,1,.66,0l0-5.1a4,4,0,0,0,1,0c.08-.16,0-2.5,0-2.5a3.86,3.86,0,0,1,.76,0h1.58l0,2.47a1.92,1.92,0,0,0,.65,0h0c0,.07-.07,3.9,0,5.09H121v5.54a1.64,1.64,0,0,0,.5,0V51.36a2,2,0,0,1,.56,0c.05,0,0,0,.05,0a13.36,13.36,0,0,0,0-1.55V33.44h.77a4.6,4.6,0,0,0,0-1V30h0l2.36-2.18c.15.18,1.18,1.29,1.57,1.63V28l5.43,0a1.8,1.8,0,0,1,.33,0,3.71,3.71,0,0,1,0,.58v6.76h0a4.48,4.48,0,0,0,1,0h2.46V55a2.16,2.16,0,0,0,.81,0,0,0,0,0,1,0,0c.07-.1,0-.42,0-.53V35.22a.75.75,0,0,1,.27-.26.33.33,0,0,1,.06-.12,1.73,1.73,0,0,0,.4-.41c.07-.06.2-.11.23-.2a3.28,3.28,0,0,0,0-1V30.82c.28-.18.52-.41.78-.61a1,1,0,0,0,.26-.22c0-.06,0-.08.05-.09h4.59c.08.24,0,4.05,0,4.05.23.32.38.75.58,1.09.48.88,1,1.78,1.52,2.68.16.28.31.59.48.89a2.31,2.31,0,0,1,.16.31h.5s0,0,0,.11a1.5,1.5,0,0,0,0,.42V46c0,.15,0,.38.06.42s.27,0,.35,0h4v0a2.62,2.62,0,0,1,0,.49v4.61a13,13,0,0,0,0,1.65,2,2,0,0,0,.59,0h1.25v0a1.67,1.67,0,0,1,0,.45,8.6,8.6,0,0,0,0,1.15H154a1.75,1.75,0,0,1,0,.65v20.8a1.12,1.12,0,0,0,.45,0h1v0h0a13,13,0,0,0,0-2V68.76h.43V87.83c.06.07,2.24,1.54,2.35,1.6v-.18a1.7,1.7,0,0,0,0-.51V69.37a6.59,6.59,0,0,1,.2-1.91c.89-3.73,6.65-4.46,6.86-4.52s6-.69,6.58,2.54h0v0a2.33,2.33,0,0,0,0-.49s-.07-10.28.07-10.77A5.86,5.86,0,0,1,175,50.83,8.62,8.62,0,0,1,176.9,50a9.29,9.29,0,0,1,2.71-.61,8.79,8.79,0,0,0,0-.88s0-38.29,0-38.4a3.07,3.07,0,0,1,.17-.71,7.45,7.45,0,0,1,3.88-4.09,10.86,10.86,0,0,1,5.51-.9c.09-.24,0-3.77,0-3.77h0v0c2.35-1.07,2.27.05,2.27.05l.08,4.7c.2,0,2,1.21,1.82,2.49,0,.2,0,53.32,0,59,.16.06,6.26,0,6.26,0a1.53,1.53,0,0,1,0,.44v49.33a2.09,2.09,0,0,1,0,.25c.12.06,1.57,1.14,1.8,1.2v-.11a1.21,1.21,0,0,0,0-.33V54.69c.28-.86,3.68-4.52,11-5.44.3,0,1.15-.1,1.2-.22s0-4.45,0-4.45a5.6,5.6,0,0,1,2-.68c1.15-.1,2.19.1,2.3.68h0s.39,50.77.39,65.92a1.31,1.31,0,0,0,.63.07h1.39v0h0v0c0,.06,0,.24,0,.37v5.48c0,.12,0,.35,0,.4a5.13,5.13,0,0,0,.68,0h2.39a1.31,1.31,0,0,1,0,.36V131.3a9.34,9.34,0,0,0,0,1.52c.09,0,1.54,1,1.67,1s.13.18.23.23V134c.05,0,0-.2,0-.32V119.89a6.31,6.31,0,0,1,0-1.23h0c.05,0,.21,0,.33,0H230v0h0c0-.74,0-1.55,0-2.32V112.2h0c.07,0,.3,0,.4,0h5.61a3.53,3.53,0,0,1,0,1.06V117c0,.15,0,.3.05.33s.23,0,.31,0h4s0,0,0,.06a5,5,0,0,1,0,.55s-.05,25.16,0,25.92c.21,0,.33.21.46.28s2.81,1.84,3,2.07c0,0,.1.07.13.14a2.43,2.43,0,0,1,0,.54s0,28.56-.1,28.61S127.63,98.89,127.21,99,10.5,175.38,10.42,175.32c0-.35-.12-37.75-.12-40.32h.25a15.9,15.9,0,0,1,0,1.93v.19l.05,0a10.57,10.57,0,0,0,.53-1.73,1.91,1.91,0,0,1,.54,0s0,0,0-.05,0-11.2.07-11.4a.9.9,0,0,0,.46,0c0-.18,0-2.07,0-2.07s0,0,0,0h.4c.17-.31.38-3,.54-3.89h.05v.1c.12.15.48,3.63.6,3.76s.26,0,.36,0a14.11,14.11,0,0,0,0,2.11,1.41,1.41,0,0,0,.46,0h1.09a4.94,4.94,0,0,0,0-.86v-1.89a4.7,4.7,0,0,1,1.19,0c.06-.13.05-6.73.05-6.73v0c.06,0,.11,0,.13,0s1.34-3.2,1.44-3.48c0,0-.05-24.18,0-24.25a10.63,10.63,0,0,0,1.47,0s0-.07,0-.07a1.48,1.48,0,0,0,0-.48V80s3.36-5.94,3.38-6l.21-6.65a.41.41,0,0,1,.22,0s-.12,4.67-.1,5.13l1.22,0,.08-4.77c.1,0,.25,0,.33,0l-.18,6.52c.05.08,3.05,5.66,3.23,5.82v6.55c.14,0,1.57,0,1.57,0s0,0,.05,0v4.11a.11.11,0,0,0,0,.07h1.43v0c0-.31,0-10.82,0-11.07a1.14,1.14,0,0,0,.52,0c.08-.21,0-3.92,0-3.92a5.85,5.85,0,0,1,1.27,0c0-.11,0-4.73,0-4.73a3.41,3.41,0,0,1,.91,0h.05v-13s0,0,0,0h0s.11,0,.14,0v0c.12.12,0,13,0,13h.07c.1,0,.76,0,1,0,.05,1.51,0,3.25,0,4.76h1v0c.08.09,0,3.63.08,3.91h0c.15.07.44,0,.56,0s0,11,0,11.07a1.58,1.58,0,0,0,.59,0h1.52V74.52H40a5.86,5.86,0,0,1,0,.84v27.9l.16,0v21.43h1.19a.15.15,0,0,1,0-.07c0-.11,0-32.46,0-32.46a5.73,5.73,0,0,1,0-.83h.51a2.94,2.94,0,0,0,0-.94V81.6s0,0,0,0h.76v0c.05-.07,0-.25,0-.35V78a6.71,6.71,0,0,1,0-1.19h1.79a5,5,0,0,1,.07,1.37v3.38a2.62,2.62,0,0,0,.56,0v8.7a5.7,5.7,0,0,0,0,1.1h.59v0a3.74,3.74,0,0,1,0,.75v2.12c0,2.54,0,5.13,0,7.63a1.17,1.17,0,0,0,.38,0v0c.1-1.3,0-2.72,0-4.05V90.17h.49a3.57,3.57,0,0,0,0-1V56a2.74,2.74,0,0,1,.65,0c.06-.71,0-1.53,0-2.28V49.38a.18.18,0,0,1,.13,0c.12-.1.22-.51.29-.66.26-.61.49-1.24.77-1.85.17-.43.41-.9.55-1.35V32.45h.31V45.93c.34.83.71,1.65,1.05,2.47h0c0-.32,0-.69,0-1v-1.8h0c.1.1.78,0,1,0h2.61c.2,0,.87,0,1,0a5.06,5.06,0,0,1,0,1V58.48a4.7,4.7,0,0,0,0,1.14h2.75V96.33a4,4,0,0,0,0,1,2.18,2.18,0,0,1,.68,0h1.47v0a1.66,1.66,0,0,1,0,.5v6a2,2,0,0,0,.71,0c0,2.9,0,5.85,0,8.72h0c.08-.08.24-.11.33-.18s.33-.38.64-.41c0-1.37,0-2.82,0-4.24v-1.17a1.68,1.68,0,0,1,0-.5s0,0,0,0l0-.1H62s0-.09,0-.09C62.1,105.71,63.26,103.92,63.55,103.47Z"/><path class="cls-1" d="M136.78,320.22c.07-.11,24.58-66.33,24.7-66.51s.25-.2.33-.38c.06-.35,0-.79-.27-.86-.06-.07-.18-.07-.31-.07s-86,.32-86.43.25-1.37,0-1,.32c-.09.16,61.83,67.29,61.91,67.35C136.5,321.31,136.75,320.26,136.78,320.22Zm45.35-42.16c0-.55-9.25-21-9.58-21-.07.07-25.26,65.15-25.08,65.39.84.07,9.72,0,9.72,0C157.22,322.17,157.57,291.35,182.13,278.06ZM169.4,322.47c.16.1,31.79-.1,32.3-.05s.48-.13.48-.27-14.92-32.66-15-32.66C168.67,298.91,169,322.24,169.4,322.47Zm-84.38,1a37.66,37.66,0,0,0-11.75-27.91,39.9,39.9,0,0,0-11.38-8.05c-.12.1-12.18,37.41-12.26,37.65-1.65,6.54-12.06,5.32-9.92-2.89-.09-.58,11.62-37.42,11.54-37.85v0a42.83,42.83,0,0,0-5.83-.38,38.48,38.48,0,0,0-27.86,11.29s-4.85,5-6.6,8.24a2.14,2.14,0,0,1-.13.22c-.28-.07-10.71-5.31-10.71-5.49A42.18,42.18,0,0,1,8.65,286.9a50.13,50.13,0,0,1,36.77-15.24,58.3,58.3,0,0,1,9.54.79c.94-2.59,15.57-48,15.59-48.16,4.12-12.45,18.66-12.45,19-12.45,1.47-.33,13.32,0,16.32,0a1.64,1.64,0,0,0,.23.25c0,.38,0,9.28,0,9.52s-.17.21-.27.31H92.55c-10.78.25-12.7,6.71-12.75,6.86-.11.3-3.61,12.62-3.5,12.77.12.4,1,.23,1.54.23,1.4,0,88.26.1,88.5-.07a3,3,0,0,0,.55-1.1c.1-.35,3-8.46,3-8.79-.06-.07-.09-.18-.19-.23-.28-.15-20.82-5-21-5.05-4.49-3-.66-4.44-.53-4.56H193.3s.1,0,.15.07a1.43,1.43,0,0,0,.11.15c0,.2.05,9.39,0,9.62-.09,0-.16.1-.26.13-.43,0-11.18.11-11.5.13-.06.08-.33-.07-.61,1,0,.05-3.13,8.53-3,8.9s13.29,29.57,13.34,29.69a2.59,2.59,0,0,1,.17.38v.2c.06.16.24.29.33.49s.08.38.16.56a52.62,52.62,0,0,1,16.78-2.62c14.43,0,28.89,6.75,36.75,15.09a48.47,48.47,0,0,1,9,12.64c-.19.17-10.49,5.53-10.52,5.53a50.42,50.42,0,0,0-6.81-9.31c-6.54-8.25-17.7-10.29-17.74-10.31a42.11,42.11,0,0,0-21.46,0h0a1.55,1.55,0,0,0-.68.32c0,.23,18.43,41.65,18.48,41.85,2.19,6.51-4.12,6.17-4.39,6.25H170.85a39.23,39.23,0,0,0,10.23,17.52,38.07,38.07,0,0,0,27.86,11.55,41.58,41.58,0,0,0,35-20.21c.1.08,2.72,1.42,5.34,2.74s5.22,2.65,5.25,2.72c-3.48,6.71-9.8,12.85-9.82,12.87a49.76,49.76,0,0,1-33.25,14.23,25,25,0,0,1-5,0q-19.81-.84-34.34-15.18A51.39,51.39,0,0,1,158,332.93c-16.13-.14-6.2.29-21.85.13-.2,0-5.73.34-10-5.59a2.11,2.11,0,0,0-.44-.5c-.42-.31-55.6-62-55.75-62.13s-.44-.29-.66-.15-.21.4-.33.66-2.72,8.86-3,10.38a53.94,53.94,0,0,1,16.23,11.14q15.12,15.51,15.13,36.65T82.19,360a50.17,50.17,0,0,1-36.77,15.19q-21.63,0-36.77-15.09A39.53,39.53,0,0,1,.19,348.56c0-.14,10.16-5.82,10.39-5.85v.05c1.12,2.47,7,8.77,7,8.77a39.06,39.06,0,0,0,10.89,7.77c.05,0,.08,0,.11,0a.82.82,0,0,1,.17.1A38.91,38.91,0,0,0,45.42,363a37.9,37.9,0,0,0,27.85-11.53A37.67,37.67,0,0,0,85,323.52Z"/></g></svg>