<?xml version="1.0" encoding="UTF-8" standalone="no"?>
<svg
   xmlns:dc="http://purl.org/dc/elements/1.1/"
   xmlns:cc="http://creativecommons.org/ns#"
   xmlns:rdf="http://www.w3.org/1999/02/22-rdf-syntax-ns#"
   xmlns:svg="http://www.w3.org/2000/svg"
   xmlns="http://www.w3.org/2000/svg"
   viewBox="0 0 625.26666 616.34668"
   height="616.34668"
   width="625.26666"
   xml:space="preserve"
   id="svg2"
   version="1.1"><metadata
     id="metadata8"><rdf:RDF><cc:Work
         rdf:about=""><dc:format>image/svg+xml</dc:format><dc:type
           rdf:resource="http://purl.org/dc/dcmitype/StillImage" /></cc:Work></rdf:RDF></metadata><defs
     id="defs6" /><g
     transform="matrix(1.3333333,0,0,-1.3333333,0,616.34667)"
     id="g10"><g
       transform="scale(0.1)"
       id="g12"><path
         id="path14"
         style="fill:#231f20;fill-opacity:1;fill-rule:nonzero;stroke:none"
         d="m 2880.66,1843.24 c 0,5.44 -92.54,209.67 -95.85,210.16 -0.65,-0.65 -250.75,-646.83 -250.75,-653.93 8.42,-0.66 97.17,-0.17 97.17,-0.17 0.33,2.81 3.8,310.97 249.43,443.94 z m 195.66,-443.61 c 4.78,0 4.78,1.32 4.78,2.65 0,5.11 -149.13,326.63 -150.29,326.63 -184.76,-94.2 -181.3,-327.46 -177.5,-329.77 1.65,-0.99 317.89,0.99 323.01,0.49 z m -436.84,-105.08 c -161.34,1.32 -62.03,-2.97 -218.58,-1.32 -1.98,0 -57.25,-3.46 -100.14,55.92 -1.16,1.65 -2.8,3.8 -4.45,4.95 -4.13,3.14 -555.94,619.79 -557.43,621.27 -1.16,0.82 -4.46,2.97 -6.6,1.49 -2.64,-0.82 -2.14,-3.96 -3.3,-6.6 -0.49,-1.82 -27.22,-88.59 -30.02,-103.76 58.39,-25.58 112.84,-62.69 162.32,-111.36 100.8,-103.44 151.28,-225.51 151.28,-366.56 0,-140.88 -50.48,-262.63 -151.28,-365.07 -101.94,-101.459 -224.35,-151.928 -367.71,-151.928 -144.18,0 -266.92,50.137 -367.72,150.928 0,0 -50.31,44.06 -84.62,115.65 0,1.48 101.62,58.23 103.93,58.56 0,-0.16 0,-0.33 0,-0.5 11.22,-24.73 69.78,-87.75 69.78,-87.75 33.16,-33.16 69.45,-58.9 108.88,-77.71 0.49,0 0.82,0 1.16,-0.33 0.49,-0.16 0.98,-0.65 1.64,-0.98 50.48,-23.6 106.08,-35.141 166.95,-35.141 108.38,0 201.43,38.111 278.47,115.311 78.36,77.04 117.46,169.91 117.46,278.96 0,109.21 -39.1,202.09 -117.46,279.13 -34.81,34.64 -72.59,61.37 -113.83,80.51 -1.15,-1 -121.75,-374.15 -122.57,-376.47 -16.5,-65.49 -120.6,-53.28 -99.15,28.88 -0.99,5.77 116.14,374.14 115.32,378.44 v 0.32 c -18.81,2.64 -38.44,3.8 -58.24,3.8 -108.38,0 -201.43,-37.62 -278.63,-112.84 0,0 -48.5,-50.15 -65.99,-82.49 -0.49,-0.83 -0.82,-1.48 -1.32,-2.14 -2.8,0.66 -107.06,53.12 -107.06,54.94 41.41,76.87 85.28,114.15 85.28,114.15 101.96,101.79 224.36,152.43 367.72,152.43 32.83,0 64.51,-2.8 95.35,-7.92 9.41,25.91 155.73,480.22 155.9,481.54 41.24,124.56 186.58,124.56 189.55,124.56 14.68,3.3 133.13,0 163.15,0 0.5,-0.66 1.32,-1.65 2.31,-2.48 0.17,-3.79 0,-92.87 0,-95.18 -0.49,-1.49 -1.65,-2.15 -2.64,-3.14 -16.83,0 -124.71,0 -132.3,0 -107.89,-2.47 -127.03,-67.14 -127.53,-68.62 -1.15,-2.98 -36.12,-126.2 -34.97,-127.69 1.15,-3.96 10.39,-2.31 15.34,-2.31 14.03,0 882.58,-0.99 885.06,0.66 2.14,1.32 5.11,9.73 5.44,11.05 0.99,3.47 30.35,84.63 30.35,87.93 -0.65,0.66 -0.98,1.81 -1.97,2.31 -2.81,1.49 -208.19,49.82 -209.68,50.48 -44.87,30.03 -6.6,44.38 -5.28,45.53 148.81,0 300.91,0 450.69,0 0.5,-0.33 1,-0.33 1.49,-0.66 0.16,-0.49 0.83,-0.99 1.16,-1.48 0,-1.98 0.49,-93.87 0,-96.18 -1,-0.32 -1.65,-0.99 -2.65,-1.32 -4.28,0 -111.84,-1.15 -114.98,-1.32 -0.65,-0.82 -3.3,0.67 -6.1,-10.22 -0.33,-0.5 -31.35,-85.3 -30.35,-88.93 0.65,-2.47 132.96,-295.78 133.46,-296.94 0.66,-1.15 1.15,-2.47 1.65,-3.79 0,-0.67 0,-1.32 0,-1.98 0.66,-1.65 2.47,-2.97 3.3,-4.96 1.15,-1.64 0.82,-3.78 1.65,-5.6 52.29,17.49 108.38,26.23 167.77,26.23 144.35,0 288.86,-67.47 367.55,-150.95 0,0 49.98,-46.35 90.4,-126.36 -1.98,-1.65 -105.25,-55.43 -105.25,-55.27 -32.01,56.1 -68.13,93.05 -68.13,93.05 -65.33,82.48 -177.01,102.94 -177.34,103.1 -33.82,9.24 -69.46,13.7 -107.23,13.7 -37.62,0 -73.57,-4.79 -107.39,-14.03 v -0.16 c -1,-0.17 -3.8,-0.82 -6.77,-3.14 0,-2.3 184.27,-416.54 184.77,-418.52 21.94,-65.16 -41.24,-61.7 -43.89,-62.52 -1.32,0 -376.46,0 -407.64,0 17.49,-63.85 51.48,-124.89 102.29,-175.2 77.37,-77.04 170.24,-115.48 278.63,-115.48 108.38,0 201.26,37.78 278.63,112.83 0,0 44.38,39.44 71.76,89.25 0.82,-0.82 27.22,-14.18 53.45,-27.38 26.23,-13.36 52.29,-26.56 52.46,-27.22 -34.81,-67.14 -97.99,-128.51 -98.16,-128.67 -93.7,-89.41 -204.56,-136.918 -332.57,-142.371 -0.66,-0.168 -25.24,-2.797 -49.82,-0.168 -132.15,5.621 -246.63,56.101 -343.46,151.779 -75.06,77.03 -122.08,164.14 -141.55,261.47 z m -212.31,127.03 c 0.65,1.15 245.8,663.34 246.95,665.15 0.83,1.32 2.48,1.97 3.3,3.79 0.67,3.47 -0.33,7.92 -2.63,8.58 -0.67,0.66 -1.82,0.66 -3.14,0.66 -1.15,-0.99 -860.48,-3.14 -864.27,-2.47 -3.63,0.98 -13.69,0.33 -10.07,-3.14 -0.82,-1.65 618.31,-672.91 619.14,-673.56 7.92,-9.9 10.39,0.65 10.72,0.99" /><path
         id="path16"
         style="fill:#231f20;fill-opacity:1;fill-rule:nonzero;stroke:none"
         d="m 2331.48,3633.97 c -2.96,-0.67 -1167.15,-763.97 -1167.97,-763.31 0,3.46 -1.16,377.44 -1.16,403.18 h 2.48 c 0.82,-1.32 0.33,-19.3 0.33,-19.3 0,-0.66 0,-1.32 0,-1.98 0,0.16 0,0 0.49,0.33 1.16,1.65 4.46,13.52 5.28,17.32 1.32,0.5 3.8,0.16 5.45,0.16 0,0.17 0.16,0.34 0.16,0.5 0.99,1.32 -0.16,112.01 0.66,113.99 1.32,-0.33 3.14,-0.33 4.62,0 0.33,1.82 0,20.79 0,20.79 0.16,0.33 0.16,0 0.16,0.33 h 3.96 c 1.65,3.13 3.8,30.36 5.45,38.93 h 0.49 v -0.99 c 1.16,-1.48 4.79,-36.29 5.94,-37.61 0.83,-0.66 2.64,-0.33 3.63,-0.33 0.17,-0.33 -0.82,-18.48 0.5,-21.12 1.15,-0.49 3.29,-0.16 4.62,-0.16 h 10.88 c 0.5,2.31 0,6.1 0,8.58 v 18.97 c 2.48,0.99 9.08,0.33 11.88,0.33 0.66,1.32 0.49,67.31 0.49,67.31 0,0.33 0,0.16 0,0.49 0.66,0.17 1.16,0.17 1.33,0.5 0.49,1.32 13.36,32 14.35,34.8 0,0 -0.5,241.85 0.33,242.51 0.82,-0.66 14.68,-0.33 14.68,-0.33 0,0.33 0,0.66 0.33,0.66 0.49,0.82 0.17,3.46 0.17,4.78 v 60.71 c 0.49,0.33 33.65,59.39 33.81,59.72 l 2.15,66.48 c 0.49,0.33 0.99,0.33 2.14,0.33 0,0 -1.15,-46.68 -0.99,-51.3 l 12.21,-0.33 0.83,47.67 c 0.98,0.17 2.47,0.5 3.29,0.5 l -1.81,-65.17 c 0.49,-0.82 30.52,-56.58 32.34,-58.23 v -65.49 c 1.31,-0.33 15.66,-0.33 15.66,-0.33 0,0.33 0,0.33 0.5,0.33 v -41.08 c 0,-0.33 0,-0.33 0.16,-0.66 h 14.36 c 0,0.33 0,0 0,0.33 0.33,3.13 -0.33,108.22 0.33,110.69 1.32,-0.33 3.63,-0.33 5.11,0 0.83,2.15 0.16,39.27 0.16,39.27 2.65,0.82 9.24,0.33 12.71,0.33 0.17,1.15 0,47.34 0,47.34 2.14,0.83 6.44,0.34 9.07,0.34 0.5,0 0,0 0.5,0 v 130.32 c 0.16,0.16 0.16,0 0.49,0.33 h 0.17 c 0.49,-0.33 1.15,0 1.48,0 v -0.33 c 1.16,-1.16 0.16,-130.32 0.16,-130.32 h 0.67 c 0.99,-0.34 7.59,0 9.73,0 0.49,-15.19 -0.49,-32.5 0.33,-47.68 h 10.06 v -0.5 c 0.83,-0.82 0,-36.29 0.83,-39.1 h 0.16 c 1.49,-0.65 4.46,0.17 5.61,0 0.5,-1.31 -0.16,-109.7 0.5,-110.69 0.99,-0.66 4.29,-0.33 5.93,-0.33 h 15.18 v 162.17 h 4.46 c 0.49,-2.15 0,-5.61 0,-8.42 v -278.96 c 0.49,0 1.15,-0.33 1.65,-0.33 v -214.3 h 11.87 c 0,0.34 0,0.5 0.17,0.66 0.5,1.16 0.33,324.66 0.33,324.66 0,2.81 -0.33,6.11 0,8.25 h 5.11 c 0.99,2.48 0.17,6.6 0.17,9.4 v 88.26 c 0.33,0 0,0 0.33,0.33 h 7.59 v 0.33 c 0.49,0.66 0.33,2.48 0.33,3.46 v 31.85 c 0,3.79 -0.5,8.41 0.16,11.87 H 1505 c 1.15,-1.98 0.65,-10.55 0.65,-13.69 v -33.82 c 1.32,-0.33 3.96,0 5.61,0 v -86.94 c 0,-3.62 -0.49,-7.92 0.17,-11.05 h 5.93 v -0.33 c 0.5,-0.66 0,-6.1 0,-7.58 v -21.13 c 0,-25.4 0.17,-51.3 0.17,-76.37 0.99,-0.33 2.64,-0.33 3.79,-0.33 v 0.33 c 0.99,13.03 0,27.21 0,40.58 v 76.71 h 4.95 c 0.83,2.64 0,6.93 0,9.9 v 331.58 c 1.65,0.5 4.29,0.17 6.44,0.17 0.66,7.09 0.16,15.34 0.16,22.76 v 43.56 c 0.5,0 0.99,0 1.32,-0.33 1.16,0.99 2.15,5.11 2.81,6.6 2.64,6.1 4.95,12.36 7.75,18.47 1.65,4.29 4.12,9.08 5.45,13.53 v 130.99 h 3.13 V 4164.5 c 3.46,-8.24 7.09,-16.49 10.56,-24.74 h 0.33 c 0.16,3.3 0.16,6.93 0.16,10.56 v 17.98 h 0.5 c 0.98,-0.99 7.75,-0.33 9.9,-0.33 h 26.06 c 1.98,0 8.74,0.33 9.73,0 0.66,-1.32 0,-8.25 0,-10.23 v -118.78 c 0,-3.79 -0.49,-8.25 0.33,-11.38 h 27.55 v -367.05 c 0,-2.97 -0.49,-7.59 0.33,-9.9 1.65,0.66 4.62,0.16 6.77,0.16 h 14.68 v -0.33 c 0.49,-0.82 0,-3.46 0,-4.94 v -60.38 c 1.65,-0.83 4.95,-0.5 7.09,-0.5 0,-29.04 -0.49,-58.56 0.33,-87.27 h 0.17 c 0.82,0.83 2.47,1.16 3.3,1.82 2.14,1.32 3.29,3.79 6.43,4.12 0.33,13.7 0,28.21 0,42.4 v 11.71 c 0,1.16 -0.33,3.79 0.16,4.95 0.5,0 0.5,0.16 0.5,0.33 l 0.5,0.99 0.49,0.17 c 0,0.49 0,0.82 0.17,0.82 0.99,1.98 12.53,19.96 15.5,24.42 h 0.16 c 0.34,-1.98 4.96,-1 7.1,-1 h 22.27 c 0.33,0.34 0.66,0.83 0.66,1.65 0,0.66 0,2.15 0,3.14 v 162.49 c 0,4.12 -1.15,9.74 0,13.04 1.65,-0.5 4.29,-0.17 6.27,-0.17 h 12.7 v 0.17 h 0.5 c 0.16,3.3 0,7.42 0,10.88 v 18.64 h 11.54 v 0.33 h 0.34 c 0.66,10.73 0.16,22.61 0.16,33.66 v 323.34 c 0.66,3.3 5.44,189.71 5.44,193.67 v 3.96 c 0.99,4.45 0.33,41.08 0.33,41.08 h 2.81 v -37.45 c 0.16,-0.17 0.16,-0.17 0.66,-0.33 0,0 3.3,0.16 4.95,0.16 h 48 v 0.17 h 0.33 c 0.17,3.47 5.12,58.07 6.44,63.67 h 0.16 v -2.14 c 0.66,-1.15 5.61,-60.05 6.6,-61.53 0.99,-0.83 36.62,-0.17 36.62,-0.17 0,0.17 0,0.34 0.33,0.5 0.66,1.15 0.17,31.51 0.17,31.51 0.82,0.33 1.65,0.33 2.97,0.33 0,0 -0.5,-29.86 0.66,-32.66 v -3.47 c 0,-3.3 9.4,-197.47 9.4,-197.96 0.83,-0.82 0.33,-252.57 0.33,-252.57 2.47,-0.83 9.24,0 12.21,0 v -158.37 h 12.04 v 618.79 h 12.21 c 0,-15.17 0.16,-33.98 0.16,-33.98 0.17,0 0.17,-0.16 0.17,-0.16 h 0.33 c 0.66,-0.66 40.91,-0.33 40.91,-0.33 0,0.33 0.33,0.33 0.33,0.49 0.66,0.99 0,4.13 0,5.61 0,0 -1.49,65.33 -0.5,70.11 h 24.58 c 0.66,-1.81 0.17,-19.63 0.17,-19.63 1.98,-0.99 5.45,-0.33 8.08,-0.33 0,0 0,0 0.17,0 v 0.33 c 0.5,0.83 0.5,222.05 0.5,222.05 0,0.17 0.49,0.17 1.15,0.17 v -0.34 c 0.49,-0.98 0,-205.05 0.49,-222.21 23.6,0 22.28,0 23.6,0 0,-1.65 0.16,-2.31 0.32,-3.79 2.98,-1.65 14.19,-10.39 15.68,-11.72 v -241.84 c 1.15,-0.66 4.45,-0.33 6.59,-0.33 h 72.92 v 0.33 h 0.16 v -1.48 c 0.5,-0.83 -0.66,-17.49 0.5,-20.79 1.98,0.66 32.17,0 32.17,0 0.49,0.33 0.49,2.31 0.49,3.3 v 52.79 c 0.5,0.33 0.83,0.33 1.16,0.33 0.49,-1.49 0.49,-55.76 0.49,-55.76 0,-0.16 0,0 0,-0.33 2.15,-0.49 26.73,-0.16 26.73,-0.16 v 0.33 c 0.5,1.15 0,4.61 0,6.27 v 16.16 c 1.98,0.66 5.44,0.17 8.08,0.17 h 17.32 c 0.67,-1.82 0.17,-4.95 0.17,-7.26 v -15.51 l 0.33,-0.16 c 0.49,-0.17 2.64,0 3.79,0 0.83,-1.99 0.17,-175.2 0.17,-175.2 h 0.49 c 0.99,-0.66 6.11,-0.33 7.1,0 v 0.33 c 0.66,1.15 0,173.88 0.33,174.21 0.82,0.49 5.27,0.33 6.6,0.33 0,0 0.32,50.81 0.32,50.97 2.65,-0.82 6.93,-0.16 9.74,-0.16 0.83,1.65 0,25.07 0,25.07 2.14,0.5 5.44,0 7.59,0 h 15.83 c 0.34,-24.75 0.34,-24.75 0.34,-24.75 1.15,-0.66 4.45,-0.32 6.43,-0.32 v 0.16 h 0.33 v -0.16 c 0.49,-0.66 -0.66,-38.94 0,-50.81 h 7.92 v -55.43 c 1.15,-0.49 3.29,-0.17 4.94,-0.17 v 61.37 c 1.33,0.5 3.8,0.16 5.61,0.16 0.5,-0.16 0,0 0.5,0 0.66,4.79 0,10.4 0,15.51 v 148.97 c 0,4.62 0,10.39 0,14.52 h 7.75 c 0.83,2.31 0,7.59 0,10.56 v 23.59 h 0.33 l 23.59,21.77 c 1.49,-1.81 11.72,-12.86 15.68,-16.33 0,4.95 0,10.72 0,15.18 l 54.27,-0.33 c 0.83,0 2.97,0.16 3.3,0 0.33,-0.99 0,-4.13 0,-5.78 v -67.64 h 0.33 c 1.32,-0.66 7.59,0 9.73,0 h 24.58 v -196.97 c 1.65,-0.99 5.78,-0.33 8.08,-0.33 0,0 0,0.33 0.34,0.33 0.66,0.99 0,4.13 0,5.28 v 190.37 2.48 c 0.49,1.15 1.65,1.98 2.63,2.64 0,0.33 0.34,0.66 0.67,1.16 1.65,1.15 2.8,2.63 3.95,4.12 0.67,0.66 1.98,1.15 2.32,1.98 0.98,1.81 0.33,7.58 0.33,10.06 v 24.08 c 2.8,1.82 5.11,4.13 7.74,6.11 0.5,0.16 2.48,1.82 2.65,2.15 0.17,0.66 0,0.82 0.49,0.98 h 45.87 c 0.82,-2.47 0.32,-40.58 0.32,-40.58 2.31,-3.13 3.8,-7.42 5.78,-10.89 4.79,-8.74 10.06,-17.81 15.18,-26.72 1.65,-2.8 3.13,-5.94 4.78,-8.91 0.49,-0.5 1.49,-2.8 1.65,-3.13 h 4.94 c 0,-0.5 0.5,-0.5 0.5,-1.16 -0.5,-0.99 -0.5,-3.13 -0.5,-4.12 v -65.17 c 0,-1.48 0,-3.79 0.67,-4.12 0.5,-0.66 2.63,-0.5 3.46,-0.5 h 40.09 v -0.32 c 0.32,-0.66 0,-3.47 0,-4.95 v -46.03 c 0,-5.11 -0.66,-12.04 0,-16.5 1.65,-0.66 4.29,-0.32 5.94,-0.32 h 12.54 v -0.34 c 0.32,-0.66 0,-3.13 0,-4.45 0,-3.8 -0.17,-8.08 0.32,-11.55 h 8.92 c 0.82,-1.65 0.32,-4.45 0.32,-6.43 v -208.03 c 1.16,-0.66 3.13,-0.33 4.46,-0.33 h 9.73 v 0.33 h 0.16 c 0.99,5.94 0,13.03 0,19.63 v 50.49 c 0,1.97 0,4.12 0,5.44 h 4.29 v -190.7 c 0.67,-0.67 22.44,-15.35 23.6,-16.01 v 1.82 c 0.49,0.99 0.16,3.79 0.16,5.11 v 193.68 c 0,7.09 0.33,13.69 1.98,19.13 8.91,37.28 66.48,44.54 68.63,45.2 2.63,0 59.71,6.93 65.82,-25.4 h 0.33 v 0.16 c 0.33,0.83 0.33,3.46 0.33,4.95 0,0 -0.66,102.78 0.66,107.73 4.45,15.18 16,26.56 28.71,33.65 0.48,0.33 13.02,7.59 19.46,8.74 8.09,2.97 16.99,5.45 27.05,6.11 0.33,3.13 0.17,6.1 0.17,8.74 0,0 0,382.89 0.49,384.05 0.67,2.47 0.5,4.94 1.65,7.09 11.55,29.86 38.28,40.91 38.77,40.91 1.98,0.17 24.42,12.54 55.1,8.91 0.99,2.47 0.33,37.78 0.33,37.78 h 0.17 v 0.16 c 23.58,10.72 22.76,-0.49 22.76,-0.49 l 0.82,-47.02 c 1.99,-0.33 19.96,-12.04 18.15,-24.91 -0.32,-1.98 -0.32,-533.17 0.16,-589.43 1.65,-0.66 62.7,-0.33 62.7,-0.33 0.32,-1.15 0.32,-2.97 0.32,-4.45 v -493.26 c 0.17,-0.66 0.17,-1.81 0.17,-2.48 1.16,-0.66 15.67,-11.38 17.99,-12.04 v 1.16 c 0.32,0.66 0,2.31 0,3.3 v 628.86 c 2.8,8.58 36.78,45.2 110.36,54.44 2.97,0.33 11.54,0.99 12.04,2.14 0.16,0.33 0.16,44.54 0.16,44.54 0,0 10.56,6.1 19.97,6.76 11.54,1 21.94,-0.98 23.09,-6.76 h 0.33 c 0,0 3.96,-507.77 3.96,-659.21 1.32,-0.99 4.45,-0.66 6.27,-0.66 h 13.86 v 0.16 h 0.49 v -0.16 c 0.17,-0.66 0.17,-2.48 0.17,-3.8 v -54.77 c 0,-1.15 -0.17,-3.46 0.49,-3.96 0.99,-0.32 5.28,0 6.77,0 h 17.64 c 1.16,0 5.95,0 6.27,0 0.33,-0.66 0.33,-2.63 0.33,-3.62 v -141.22 c 0,-5.27 -0.33,-10.72 0.5,-15.17 0.82,-0.33 15.34,-9.57 16.66,-10.23 0.82,-0.5 1.32,-1.82 2.31,-2.31 v 1.15 c 0.49,0.33 0.33,1.98 0.33,3.14 v 137.58 c 0,3.79 -0.66,8.58 0.16,12.21 h 0.17 c 0.5,-0.33 2.15,-0.16 3.3,-0.16 h 38.77 v 0.16 h 0.49 c 0.33,7.42 0,15.5 0,23.26 v 41.4 h 0.33 c 0.66,-0.49 2.97,-0.16 3.97,-0.16 h 52.61 c 1.16,0 3.14,0.16 3.47,0 0.99,-1.15 0.5,-8.08 0.5,-10.56 v -37.28 c 0,-1.48 -0.5,-2.97 0.49,-3.3 0.33,-0.33 2.31,0 3.13,0 h 40.09 c 0,-0.33 0.33,-0.49 0.33,-0.66 0.17,-0.82 0,-3.96 0,-5.44 0,0 -0.5,-251.58 0.17,-259.17 2.14,-0.33 3.3,-2.14 4.62,-2.8 0.83,-0.66 28.04,-18.48 29.69,-20.79 0.33,-0.33 0.99,-0.66 1.32,-1.32 0.33,-1.32 0,-3.79 0,-5.44 0,0 0.17,-285.56 -0.99,-286.06 -0.33,-0.33 -1164.18,766.11 -1168.31,765.13" /><path
         id="path18"
         style="fill:#231f20;fill-opacity:1;fill-rule:nonzero;stroke:none"
         d="m 1164.83,2359.1 c -2.48,3.78 -3.47,296.77 -2.97,298.42 0.49,0.99 1169.29,771.22 1169.96,771.72 0.98,0 1167.48,-766.11 1168.13,-768.59 1.16,-2.14 1.98,-301.55 -0.82,-301.89 -0.5,0 -1166.82,765.45 -1169.79,764.3 -0.82,-0.33 -1160.88,-764.3 -1164.51,-763.96" /><path
         id="path20"
         style="fill:#231f20;fill-opacity:1;fill-rule:nonzero;stroke:none"
         d="M 193.668,0 C 165.969,0 140.258,5.03906 116.523,15.1094 92.7852,25.1719 72.2852,38.9297 55.0234,56.3789 37.7578,73.8203 24.2734,94.4102 14.5664,118.148 4.85547,141.891 0,167.242 0,194.211 v 1.078 c 0,26.973 4.85547,52.231 14.5664,75.801 9.707,23.539 23.1914,44.242 40.457,62.031 17.2618,17.801 37.9414,31.828 62.0396,42.078 24.089,10.25 50.71,15.383 79.839,15.383 17.618,0 33.719,-1.453 48.286,-4.32 14.562,-2.883 27.781,-6.832 39.648,-11.871 11.867,-5.039 22.836,-11.149 32.906,-18.34 10.067,-7.199 19.422,-15.11 28.055,-23.731 l -52.871,-60.968 c -14.75,13.296 -29.762,23.738 -45.043,31.289 -15.289,7.558 -32.461,11.328 -51.52,11.328 -15.832,0 -30.48,-3.059 -43.965,-9.168 -13.488,-6.121 -25.089,-14.559 -34.796,-25.352 -9.711,-10.789 -17.266,-23.289 -22.6606,-37.488 -5.3906,-14.219 -8.0898,-29.41 -8.0898,-45.59 v -1.082 c 0,-16.187 2.6992,-31.48 8.0898,-45.848 5.3946,-14.39 12.8556,-26.98 22.3866,-37.769 9.527,-10.793 21.039,-19.3322 34.527,-25.6212 13.489,-6.3008 28.325,-9.4492 44.508,-9.4492 21.575,0 39.828,3.957 54.754,11.8789 14.922,7.8984 29.758,18.6915 44.508,32.3595 L 348.492,67.4297 C 338.777,57.0117 328.707,47.6523 318.281,39.3906 307.848,31.1094 296.438,24.0117 284.023,18.082 271.617,12.1406 258.035,7.64063 243.297,4.58984 228.547,1.53906 212.008,0 193.668,0" /><path
         id="path22"
         style="fill:#231f20;fill-opacity:1;fill-rule:nonzero;stroke:none"
         d="m 472.563,384.102 h 83.078 V 6.48047 H 472.563 V 384.102" /><path
         id="path24"
         style="fill:#231f20;fill-opacity:1;fill-rule:nonzero;stroke:none"
         d="m 791.926,307.5 h -114.91 v 76.602 h 312.89 V 307.5 H 875 V 6.48047 H 791.926 V 307.5" /><path
         id="path26"
         style="fill:#231f20;fill-opacity:1;fill-rule:nonzero;stroke:none"
         d="m 1213.78,155.371 -145.11,228.731 h 97.1 l 90.09,-151.59 91.71,151.59 h 94.4 L 1296.86,156.992 V 6.48047 h -83.08 V 155.371" /><path
         id="path28"
         style="fill:#231f20;fill-opacity:1;fill-rule:nonzero;stroke:none"
         d="m 1940.43,0 c -27.7,0 -53.41,5.03906 -77.14,15.1094 -23.74,10.0625 -44.24,23.8203 -61.5,41.2695 -17.27,17.4414 -30.75,38.0313 -40.46,61.7691 -9.71,23.743 -14.57,49.094 -14.57,76.063 v 1.078 c 0,26.973 4.86,52.231 14.57,75.801 9.71,23.539 23.19,44.242 40.46,62.031 17.26,17.801 37.94,31.828 62.03,42.078 24.1,10.25 50.72,15.383 79.85,15.383 17.61,0 33.71,-1.453 48.28,-4.32 14.56,-2.883 27.78,-6.832 39.65,-11.871 11.87,-5.039 22.83,-11.149 32.91,-18.34 10.06,-7.199 19.42,-15.11 28.05,-23.731 l -52.87,-60.968 c -14.75,13.296 -29.76,23.738 -45.05,31.289 -15.28,7.558 -32.46,11.328 -51.51,11.328 -15.84,0 -30.48,-3.059 -43.97,-9.168 -13.49,-6.121 -25.09,-14.559 -34.79,-25.352 -9.72,-10.789 -17.27,-23.289 -22.67,-37.488 -5.39,-14.219 -8.09,-29.41 -8.09,-45.59 v -1.082 c 0,-16.187 2.7,-31.48 8.09,-45.848 5.4,-14.39 12.86,-26.98 22.39,-37.769 9.53,-10.793 21.04,-19.3322 34.53,-25.6212 13.48,-6.3008 28.32,-9.4492 44.51,-9.4492 21.57,0 39.82,3.957 54.75,11.8789 14.92,7.8984 29.76,18.6915 44.51,32.3595 l 52.86,-53.4103 C 2085.54,57.0117 2075.47,47.6523 2065.04,39.3906 2054.61,31.1094 2043.2,24.0117 2030.79,18.082 2018.38,12.1406 2004.8,7.64063 1990.06,4.58984 1975.31,1.53906 1958.77,0 1940.43,0" /><path
         id="path30"
         style="fill:#231f20;fill-opacity:1;fill-rule:nonzero;stroke:none"
         d="m 2321.83,155.371 -145.12,228.731 h 97.1 l 90.1,-151.59 91.71,151.59 h 94.4 L 2404.9,156.992 V 6.48047 h -83.07 V 155.371" /><path
         id="path32"
         style="fill:#231f20;fill-opacity:1;fill-rule:nonzero;stroke:none"
         d="m 2832.69,0 c -27.7,0 -53.41,5.03906 -77.14,15.1094 -23.74,10.0625 -44.24,23.8203 -61.51,41.2695 -17.25,17.4414 -30.74,38.0313 -40.46,61.7691 -9.7,23.743 -14.56,49.094 -14.56,76.063 v 1.078 c 0,26.973 4.86,52.231 14.56,75.801 9.72,23.539 23.21,44.242 40.46,62.031 17.27,17.801 37.94,31.828 62.04,42.078 24.1,10.25 50.72,15.383 79.85,15.383 17.61,0 33.71,-1.453 48.28,-4.32 14.56,-2.883 27.78,-6.832 39.65,-11.871 11.86,-5.039 22.83,-11.149 32.91,-18.34 10.06,-7.199 19.41,-15.11 28.04,-23.731 l -52.86,-60.968 c -14.75,13.296 -29.76,23.738 -45.05,31.289 -15.29,7.558 -32.46,11.328 -51.51,11.328 -15.83,0 -30.49,-3.059 -43.97,-9.168 -13.49,-6.121 -25.08,-14.559 -34.8,-25.352 -9.71,-10.789 -17.25,-23.289 -22.66,-37.488 -5.39,-14.219 -8.08,-29.41 -8.08,-45.59 v -1.082 c 0,-16.187 2.69,-31.48 8.08,-45.848 5.41,-14.39 12.87,-26.98 22.4,-37.769 9.52,-10.793 21.03,-19.3322 34.52,-25.6212 13.49,-6.3008 28.32,-9.4492 44.51,-9.4492 21.57,0 39.82,3.957 54.76,11.8789 14.91,7.8984 29.74,18.6915 44.5,32.3595 l 52.87,-53.4103 C 2977.8,57.0117 2967.73,47.6523 2957.3,39.3906 2946.87,31.1094 2935.46,24.0117 2923.05,18.082 2910.64,12.1406 2897.06,7.64063 2882.32,4.58984 2867.57,1.53906 2851.04,0 2832.69,0" /><path
         id="path34"
         style="fill:#231f20;fill-opacity:1;fill-rule:nonzero;stroke:none"
         d="m 3107.81,384.102 h 83.08 V 81.4688 h 188.28 V 6.48047 H 3107.81 V 384.102" /><path
         id="path36"
         style="fill:#231f20;fill-opacity:1;fill-rule:nonzero;stroke:none"
         d="m 3495.67,384.102 h 284.3 v -73.903 h -202.29 v -76.597 h 178.01 V 159.68 H 3577.68 V 80.3789 h 205 V 6.48047 H 3495.67 V 384.102" /><path
         id="path38"
         style="fill:#231f20;fill-opacity:1;fill-rule:nonzero;stroke:none"
         d="m 4078.3,200.691 c 20.5,0 36.23,4.848 47.21,14.559 10.96,9.711 16.44,22.648 16.44,38.852 v 1.07 c 0,17.976 -5.75,31.457 -17.25,40.457 -11.52,8.98 -27.52,13.48 -48.02,13.48 h -82.54 V 200.691 Z m -167.24,183.411 h 172.63 c 47.83,0 84.51,-12.77 110.06,-38.301 21.57,-21.582 32.36,-50.36 32.36,-86.309 v -1.082 c 0,-30.57 -7.47,-55.488 -22.38,-74.719 -14.93,-19.242 -34.44,-33.359 -58.53,-42.351 L 4237.44,6.48047 h -97.1 L 4059.42,127.32 h -1.08 -64.2 V 6.48047 h -83.08 V 384.102" /><path
         id="path40"
         style="fill:#231f20;fill-opacity:1;fill-rule:nonzero;stroke:none"
         d="M 4461.32,155.371 4316.2,384.102 h 97.1 l 90.1,-151.59 91.71,151.59 h 94.4 L 4544.39,156.992 V 6.48047 h -83.07 V 155.371" /></g></g></svg>