<svg xmlns="http://www.w3.org/2000/svg" viewBox="0 0 560.63 81.65"><defs><style>.cls-1{fill:#FECB00;}</style></defs><g id="Calque_2" data-name="Calque 2"><g id="Calque_1-2" data-name="Calque 1"><path class="cls-1" d="M57.72,34.54,49.2,81.65a80.36,80.36,0,0,0,21.45-18,4.49,4.49,0,0,0,1-2.34A79.7,79.7,0,0,1,88.45,22.28a2,2,0,0,0,.45-1.08c.18-1.55.31-3.1.39-4.68A80.07,80.07,0,0,0,88.49,0a114.57,114.57,0,0,0-29,30.05,12,12,0,0,0-1.8,4.49"/><path class="cls-1" d="M31.69,34.54l8.52,47.11a80.36,80.36,0,0,1-21.45-18,4.65,4.65,0,0,1-1-2.34A79.7,79.7,0,0,0,1,22.28,2,2,0,0,1,.51,21.2C.34,19.65.2,18.1.12,16.52A80.07,80.07,0,0,1,.92,0a114.57,114.57,0,0,1,29,30.05,12,12,0,0,1,1.8,4.49"/><path class="cls-1" d="M188.86,13.26h-33l-23.43,55.2h39.62c15.24,0,34.24-11.81,39.31-27.61,5.22-16.27-7.28-27.59-22.52-27.59M193,40.86h0c-2.76,6.5-10.26,11.77-16.76,11.77H158.14l10-23.54h18.12c6.5,0,9.53,5.27,6.77,11.77"/><polygon class="cls-1" points="393.95 13.26 375.35 13.26 351.96 68.45 370.56 68.45 393.95 13.26"/><polygon class="cls-1" points="560.63 13.26 542.01 13.26 518.58 68.55 537.2 68.55 560.63 13.26"/><polygon class="cls-1" points="350.01 13.26 317.31 49.2 310.16 13.26 292.9 13.26 303.9 68.55 321.16 68.55 371.45 13.26 350.01 13.26"/><polygon class="cls-1" points="446.98 13.26 432.74 46.87 419.34 13.26 400.8 13.26 377.41 68.45 396 68.45 409.78 35.94 422.75 68.45 442.18 68.45 465.57 13.26 446.98 13.26"/><path class="cls-1" d="M275.46,52.61H239.27c-6.48,0-7.64-5-7.64-5h46l5.71-13.47H237.16c3.37-3,7.7-5,11.65-5h36.62l6.71-15.84H252.77c-7.55,0-16.16,2.9-23.62,8-7.89,5.32-13.55,12.36-16,19.82-2.19,6.85-1.39,13.16,2.32,18.25,4.2,5.75,11.73,9.19,20.14,9.19h33.09Z"/><path class="cls-1" d="M482.65,52.61c-6.49,0-9.52-5.26-6.77-11.76s10.26-11.76,16.76-11.76h35.79l6.72-15.84H495.47c-15.26,0-34.29,11.83-39.37,27.65-5.23,16.3,7.29,27.64,22.55,27.64h33l6.76-15.93Z"/></g></g></svg>